<svg width="279" height="412" viewBox="0 0 279 412" fill="none" xmlns="http://www.w3.org/2000/svg">
<path d="M182.401 63.3445C178.045 63.8002 173.673 62.6403 170.116 60.0852C166.598 57.5328 163.606 54.3238 161.306 50.6351C157.257 44.5268 154.336 37.7411 152.684 30.601C149.902 33.9452 145.499 35.4771 141.241 34.5823C134.425 33.052 130.337 25.0989 131.667 18.2405C132.996 11.3822 138.623 5.94471 145.044 3.19213C151.465 0.439554 158.62 -0.0151274 165.607 0.000375553C170.213 0.0106295 174.908 0.225443 179.235 1.80538C183.562 3.38532 187.526 6.5342 189.063 10.8767C190.027 13.5992 189.996 16.6126 191.092 19.2847C193.081 24.1357 198.241 26.7847 203.083 28.7947C207.926 30.8047 213.19 32.8458 216.046 37.243C219.271 42.2084 218.34 49.1384 214.786 53.874C211.233 58.6097 205.525 61.3555 199.717 62.5038C193.909 63.652 187.925 63.3681 182.011 63.0794" fill="#3C3C3C"/>
<path d="M235.269 375.272L254.354 366.996L243.998 345.682L228.586 354.701L235.269 375.272Z" fill="#737373"/>
<path d="M164.668 265.986L183.101 303.479L215.63 369.65L249.167 353.534L212.145 266.857L212.04 255.946L211.709 221.994L164.668 265.986Z" fill="#3D3D3D"/>
<path d="M112.401 358.325L132.001 365.294L138.97 342.644L121.548 338.725L112.401 358.325Z" fill="#737373"/>
<path d="M116.757 161.116L175.993 144.129L158.571 132.369L112.837 146.742L92.1571 151.706C89.199 152.416 86.7109 154.406 85.3695 157.137C84.0282 159.867 83.973 163.054 85.2191 165.829C86.3871 168.43 88.5889 170.425 91.2925 171.332C93.9962 172.239 96.9556 171.975 99.456 170.604L116.757 161.116Z" fill="#737373"/>
<path d="M154.651 132.829L178.607 146.767C180.721 129.337 170.299 98.3087 157.264 64.4463C149.487 70.078 145.439 79.5318 146.73 89.0466L154.651 132.829Z" fill="#FBFBFB"/>
<path d="M257.879 167.65L258.382 185.529C258.471 188.682 259.998 191.621 262.528 193.506C265.057 195.391 268.31 196.014 271.357 195.198C274.288 194.413 276.725 192.376 278.018 189.63C279.31 186.884 279.327 183.708 278.064 180.948L271.381 166.343L250.474 116.689L236.101 121.916L257.879 167.65Z" fill="#737373"/>
<ellipse cx="160.531" cy="28.1073" rx="18.7291" ry="18.7291" fill="#737373"/>
<path d="M161.184 67.5259L182.962 57.0724L172.073 32.6809L153.779 36.1654L161.184 67.5259Z" fill="#737373"/>
<path d="M175.122 155.944L219.549 145.055L210.628 63.2776C209.777 55.4798 202.837 49.801 195.025 50.5112L180.349 51.8453L160.313 60.9921L152.908 68.8322L155.168 78.4943C153.062 98.395 154.685 115.663 166.255 125.911L175.122 155.944Z" fill="#FBFBFB"/>
<path d="M231.745 125.02L254.83 118.922L223.88 67.6621C217.249 56.6791 204.869 50.5162 192.109 51.8454L203.869 90.6104C214.742 98.8152 223.877 110.609 231.745 125.02Z" fill="#FBFBFB"/>
<path d="M111.53 340.902L146.81 351.356C189.771 281.611 251.287 206.45 227.389 156.225L218.678 135.753L173.38 149.691L170.766 203.701L142.89 247.257L111.53 340.902Z" fill="#3D3D3D"/>
<path d="M94.2191 388.325L125.573 388.017C131.781 387.976 136.793 382.932 136.793 376.723L136.793 361.093C136.797 359.946 136.255 358.865 135.333 358.182C134.411 357.5 133.219 357.297 132.123 357.637C126.46 359.452 121.823 358.848 118.326 355.557C116.23 353.584 115.985 353.187 113.49 354.623L99.3346 370.085L93.5936 370.455C89.1429 370.743 85.5839 374.265 85.2505 378.712C85.0636 381.202 85.9262 383.657 87.6296 385.482C89.3331 387.308 91.7221 388.339 94.2191 388.325Z" fill="#3C3C3C"/>
<path d="M242.677 409.345L264.63 386.957C268.991 382.538 268.968 375.427 264.578 371.037L253.526 359.985C252.718 359.171 251.57 358.79 250.436 358.959C249.301 359.128 248.315 359.828 247.78 360.843C245.059 366.132 241.353 368.983 236.553 369.128C233.676 369.215 233.222 369.108 232.473 371.887L233.397 392.831L229.6 397.152C226.656 400.502 226.629 405.509 229.538 408.89C231.167 410.782 233.513 411.908 236.008 411.995C238.504 412.081 240.922 411.121 242.677 409.345Z" fill="#3C3C3C"/>
<path d="M161.286 23.7371C158.722 27.8171 154.911 30.9623 150.418 32.7065C147.236 33.9318 143.199 34.2362 140.811 31.8027C139.081 30.0398 138.736 27.3268 138.981 24.8692C139.748 17.198 145.513 10.518 152.667 7.64369C159.82 4.76943 168.078 5.39774 175.217 8.30773C181.953 11.0533 188.35 16.678 188.712 23.9428C188.898 27.6658 187.55 31.7652 189.549 34.9118C191.054 37.2816 193.961 38.2446 196.565 39.294C199.169 40.3435 201.963 41.9995 202.498 44.7556C202.761 46.6783 202.096 48.6119 200.705 49.9653C199.321 51.2874 197.682 52.3146 195.889 52.9849C191.642 54.7931 186.968 55.9204 182.405 55.2213C177.843 54.5223 173.432 51.744 171.646 47.4879C170.271 44.2103 170.553 40.5118 170.712 36.961C170.87 33.4103 170.822 29.6287 168.926 26.6222C167.031 23.6158 162.629 21.9327 159.796 24.0788" fill="#3C3C3C"/>
<path d="M19.245 115.648L57.7007 137.851C65.0904 129.944 77.2168 127.838 86.982 133.475C98.3499 140.039 102.259 154.626 95.6953 165.994C89.132 177.362 74.5449 181.27 63.177 174.707C53.4118 169.069 49.1732 157.514 52.3254 147.161L42.4657 141.469L40.5459 144.794C39.0616 147.365 35.7741 148.245 33.2032 146.761C30.6322 145.277 29.7512 141.989 31.2356 139.418L33.1554 136.093L26.5051 132.254L21.5138 140.899C20.0294 143.47 16.7419 144.351 14.1709 142.866C11.6 141.382 10.719 138.095 12.2034 135.524L17.1947 126.878L13.8697 124.959C11.2987 123.474 10.4178 120.187 11.9022 117.616C13.3865 115.045 16.674 114.164 19.245 115.648ZM68.5523 165.397C74.7863 168.996 82.7858 166.852 86.385 160.618C89.9841 154.384 87.8407 146.385 81.6067 142.786C75.3728 139.187 67.3733 141.33 63.7741 147.564C60.1749 153.798 62.3184 161.797 68.5523 165.397Z" fill="#3D3D3D"/>
</svg>
